<?xml version="1.0" standalone="no"?>
<!DOCTYPE svg PUBLIC "-//W3C//DTD SVG 20010904//EN"
 "http://www.w3.org/TR/2001/REC-SVG-20010904/DTD/svg10.dtd">
<svg version="1.0" xmlns="http://www.w3.org/2000/svg"
 width="900.000000pt" height="512.000000pt" viewBox="0 0 900.000000 512.000000"
 preserveAspectRatio="xMidYMid meet">

 <rect width="100%" height="120%" fill="#007bff" transform="translate(0, -20%)" />
    
    
<g transform="translate(50%, 50%)"></g>

<g transform="translate(0.000000,512.000000) scale(0.100000,-0.100000)"
fill="white" stroke="none">
<path d="M4860 5106 c-81 -32 -1197 -558 -1220 -574 -13 -10 -35 -38 -48 -63
-44 -82 -41 -91 213 -635 125 -269 241 -517 256 -550 l28 -62 758 354 c417
195 757 357 756 362 -5 22 -506 1087 -521 1107 -47 62 -148 90 -222 61z"/>
<path d="M2215 4431 c-83 -21 -116 -62 -165 -202 -45 -128 -49 -182 -20 -238
39 -78 19 -70 665 -290 l260 -89 377 -808 c208 -445 420 -899 471 -1009 l94
-201 -49 -54 c-149 -166 -231 -382 -230 -605 1 -247 85 -460 251 -637 124
-132 274 -223 446 -269 118 -32 336 -32 455 0 96 25 225 83 297 132 132 90
268 254 328 399 51 120 66 193 72 342 l6 136 256 121 c141 66 443 208 671 315
447 211 468 224 490 307 16 58 7 96 -55 226 -62 131 -98 163 -190 171 -58 5 2
31 -1112 -493 l-293 -137 -59 54 c-194 180 -451 271 -710 252 l-76 -6 -516
1108 -517 1109 -148 52 c-744 258 -913 315 -939 318 -16 2 -43 0 -60 -4z
m2438 -3161 c170 -53 272 -216 246 -397 -11 -78 -37 -131 -95 -193 -200 -214
-561 -105 -615 186 -40 216 129 418 352 423 26 1 76 -8 112 -19z"/>
<path d="M5445 3520 c-1190 -556 -1226 -572 -1223 -581 2 -3 86 -185 188 -403
173 -372 186 -396 211 -396 49 0 214 -32 289 -57 96 -31 220 -90 289 -137 29
-20 56 -36 61 -36 14 0 1635 760 1660 778 14 10 35 38 48 63 44 84 38 104
-177 564 -285 607 -256 552 -309 586 -37 23 -57 29 -101 29 -53 0 -110 -25
-936 -410z"/>
</g>
</svg>
